# xmcd
#
# Track frame offsets: 
#        150
#        11072
#        23543
#        37861
#        52523
#        63598
#        76054
#        87906
#        100181
#        111924
#        122755
#        135154
#        146880
#        160649
#        172729
#        186235
#        197064
#        208414
#        219817
#        231342
#        242967
#        255839
#        267828
#        277668
#        288334
#        302217
#        315180
#        326550
#        337693
#
# Disc length: 4571 seconds
#
# Revision: 1
# Processed by: cddbd v1.5.2PL0 Copyright (c) Steve Scherf et al.
# Submitted via: ExactAudioCopyFreeDBPlugin 1.0
#
DISCID=7a11d91d
DTITLE=The "5" Royales - Soul and Swagger:  The Complete "5" Royales (19
DTITLE=51-1967)
DYEAR=2014
DGENRE=Rhythm and Blues
TTITLE0=Bedside Of A Neighbor (as "The Royal Sons Quintet")
TTITLE1=Journey's End (as "The Royal Sons Quintet")
TTITLE2=Come Over Here (as "The Royal Sons Quintet")
TTITLE3=Let Nothing Separate Me (as "The Royal Sons Quintet")
TTITLE4=Too Much Of A Little Bit (as "The Royals")
TTITLE5=Give Me One More Chance (as "The Royals")
TTITLE6=So God Can Use Me
TTITLE7=I Wanna Rest
TTITLE8=You Know I Know
TTITLE9=Courage To Love
TTITLE10=Baby Don't Do It (with Charlie Ferguson and His Orchestra)
TTITLE11=Take All Of Me (with Charlie Ferguson and His Orchestra)
TTITLE12=Help Me Somebody (with Charlie Ferguson and His Orchestra)
TTITLE13=Crazy, Crazy, Crazy (with Charlie Ferguson and His Orchestra)
TTITLE14=Too Much Lovin' (Much Too Much) (with Charlie Ferguson and Hi
TTITLE14=s Orchestra)
TTITLE15=Laundromat Blues (with Charlie Ferguson and His Orchestra)
TTITLE16=All Righty! (with Charlie Ferguson and His Orchestra)
TTITLE17=I Want To Thank You (with Charlie Ferguson and His Orchestra)
TTITLE18=I Do (with Charlie Ferguson and His Orchestra)
TTITLE19=Good Things (with Charlie Ferguson and His Orchestra)
TTITLE20=I Like It Like That (with Charlie Ferguson and His Orchestra)
TTITLE21=Cry Some More (with Charlie Ferguson and His Orchestra)
TTITLE22=What's That
TTITLE23=Let Me Come Back Home
TTITLE24=I Am Thinking
TTITLE25=I'm Gonna Run It Down
TTITLE26=Behave Yourself
TTITLE27=I Can't Stand Losing You
TTITLE28=Royal J. Abbit Interview 1991
EXTD=
EXTT0=
EXTT1=
EXTT2=
EXTT3=
EXTT4=
EXTT5=
EXTT6=
EXTT7=
EXTT8=
EXTT9=
EXTT10=
EXTT11=
EXTT12=
EXTT13=
EXTT14=
EXTT15=
EXTT16=
EXTT17=
EXTT18=
EXTT19=
EXTT20=
EXTT21=
EXTT22=
EXTT23=
EXTT24=
EXTT25=
EXTT26=
EXTT27=
EXTT28=
PLAYORDER=
